<svg width="210" height="80" viewBox="0 0 210 80" fill="none" xmlns="http://www.w3.org/2000/svg">
<path d="M0 80H16V64C16 69.3333 5.33333 80 0 80Z" fill="#374151"/>
<path d="M16 16C16 7.16344 23.1634 0 32 0H194C202.837 0 210 7.16344 210 16V64C210 72.8366 202.837 80 194 80H16V16Z" fill="#374151"/>
<path d="M34.9375 21.625V33H33.4297V21.625H34.9375ZM41 24.5469V25.6562H36.4297V24.5469H41ZM37.9766 22.4922H39.4219V30.9062C39.4219 31.1927 39.4661 31.4089 39.5547 31.5547C39.6432 31.7005 39.7578 31.7969 39.8984 31.8438C40.0391 31.8906 40.1901 31.9141 40.3516 31.9141C40.4714 31.9141 40.5964 31.9036 40.7266 31.8828C40.862 31.8568 40.9635 31.8359 41.0312 31.8203L41.0391 33C40.9245 33.0365 40.7734 33.0703 40.5859 33.1016C40.4036 33.138 40.1823 33.1562 39.9219 33.1562C39.5677 33.1562 39.2422 33.0859 38.9453 32.9453C38.6484 32.8047 38.4115 32.5703 38.2344 32.2422C38.0625 31.9089 37.9766 31.4609 37.9766 30.8984V22.4922ZM43.5781 21V21.8594L43.4141 24.7344H42.4062L42.4141 21.9922V21H43.5781ZM49.7891 30.7578C49.7891 30.5495 49.7422 30.3568 49.6484 30.1797C49.5599 29.9974 49.375 29.8333 49.0938 29.6875C48.8177 29.5365 48.401 29.4062 47.8438 29.2969C47.375 29.1979 46.9505 29.0807 46.5703 28.9453C46.1953 28.8099 45.875 28.6458 45.6094 28.4531C45.349 28.2604 45.1484 28.0339 45.0078 27.7734C44.8672 27.513 44.7969 27.2083 44.7969 26.8594C44.7969 26.526 44.8698 26.2109 45.0156 25.9141C45.1667 25.6172 45.3776 25.3542 45.6484 25.125C45.9245 24.8958 46.2552 24.7161 46.6406 24.5859C47.026 24.4557 47.4557 24.3906 47.9297 24.3906C48.6068 24.3906 49.1849 24.5104 49.6641 24.75C50.1432 24.9896 50.5104 25.3099 50.7656 25.7109C51.0208 26.1068 51.1484 26.5469 51.1484 27.0312H49.7031C49.7031 26.7969 49.6328 26.5703 49.4922 26.3516C49.3568 26.1276 49.1562 25.9427 48.8906 25.7969C48.6302 25.651 48.3099 25.5781 47.9297 25.5781C47.5286 25.5781 47.2031 25.6406 46.9531 25.7656C46.7083 25.8854 46.5286 26.0391 46.4141 26.2266C46.3047 26.4141 46.25 26.612 46.25 26.8203C46.25 26.9766 46.276 27.1172 46.3281 27.2422C46.3854 27.362 46.4844 27.474 46.625 27.5781C46.7656 27.6771 46.9635 27.7708 47.2188 27.8594C47.474 27.9479 47.7995 28.0365 48.1953 28.125C48.888 28.2812 49.4583 28.4688 49.9062 28.6875C50.3542 28.9062 50.6875 29.1745 50.9062 29.4922C51.125 29.8099 51.2344 30.1953 51.2344 30.6484C51.2344 31.0182 51.1562 31.3568 51 31.6641C50.849 31.9714 50.6276 32.237 50.3359 32.4609C50.0495 32.6797 49.7057 32.8516 49.3047 32.9766C48.9089 33.0964 48.4635 33.1562 47.9688 33.1562C47.224 33.1562 46.5938 33.0234 46.0781 32.7578C45.5625 32.4922 45.1719 32.1484 44.9062 31.7266C44.6406 31.3047 44.5078 30.8594 44.5078 30.3906H45.9609C45.9818 30.7865 46.0964 31.1016 46.3047 31.3359C46.513 31.5651 46.7682 31.7292 47.0703 31.8281C47.3724 31.9219 47.6719 31.9688 47.9688 31.9688C48.3646 31.9688 48.6953 31.9167 48.9609 31.8125C49.2318 31.7083 49.4375 31.5651 49.5781 31.3828C49.7188 31.2005 49.7891 30.9922 49.7891 30.7578ZM56.7188 28.8672V28.6875C56.7188 28.0781 56.8073 27.513 56.9844 26.9922C57.1615 26.4661 57.4167 26.0104 57.75 25.625C58.0833 25.2344 58.487 24.9323 58.9609 24.7188C59.4349 24.5 59.9661 24.3906 60.5547 24.3906C61.1484 24.3906 61.6823 24.5 62.1562 24.7188C62.6354 24.9323 63.0417 25.2344 63.375 25.625C63.7135 26.0104 63.9714 26.4661 64.1484 26.9922C64.3255 27.513 64.4141 28.0781 64.4141 28.6875V28.8672C64.4141 29.4766 64.3255 30.0417 64.1484 30.5625C63.9714 31.0833 63.7135 31.5391 63.375 31.9297C63.0417 32.3151 62.638 32.6172 62.1641 32.8359C61.6953 33.0495 61.1641 33.1562 60.5703 33.1562C59.9766 33.1562 59.4427 33.0495 58.9688 32.8359C58.4948 32.6172 58.0885 32.3151 57.75 31.9297C57.4167 31.5391 57.1615 31.0833 56.9844 30.5625C56.8073 30.0417 56.7188 29.4766 56.7188 28.8672ZM58.1641 28.6875V28.8672C58.1641 29.2891 58.2135 29.6875 58.3125 30.0625C58.4115 30.4323 58.5599 30.7604 58.7578 31.0469C58.9609 31.3333 59.2135 31.5599 59.5156 31.7266C59.8177 31.888 60.1693 31.9688 60.5703 31.9688C60.9661 31.9688 61.3125 31.888 61.6094 31.7266C61.9115 31.5599 62.1615 31.3333 62.3594 31.0469C62.5573 30.7604 62.7057 30.4323 62.8047 30.0625C62.9089 29.6875 62.9609 29.2891 62.9609 28.8672V28.6875C62.9609 28.2708 62.9089 27.8776 62.8047 27.5078C62.7057 27.1328 62.5547 26.8021 62.3516 26.5156C62.1536 26.224 61.9036 25.9948 61.6016 25.8281C61.3047 25.6615 60.9557 25.5781 60.5547 25.5781C60.1589 25.5781 59.8099 25.6615 59.5078 25.8281C59.2109 25.9948 58.9609 26.224 58.7578 26.5156C58.5599 26.8021 58.4115 27.1328 58.3125 27.5078C58.2135 27.8776 58.1641 28.2708 58.1641 28.6875ZM68.6719 31.6953L70.9844 24.5469H72.4609L69.4219 33H68.4531L68.6719 31.6953ZM66.7422 24.5469L69.125 31.7344L69.2891 33H68.3203L65.2578 24.5469H66.7422ZM77.25 33.1562C76.6615 33.1562 76.1276 33.0573 75.6484 32.8594C75.1745 32.6562 74.7656 32.3724 74.4219 32.0078C74.0833 31.6432 73.8229 31.2109 73.6406 30.7109C73.4583 30.2109 73.3672 29.6641 73.3672 29.0703V28.7422C73.3672 28.0547 73.4688 27.4427 73.6719 26.9062C73.875 26.3646 74.151 25.9062 74.5 25.5312C74.849 25.1562 75.2448 24.8724 75.6875 24.6797C76.1302 24.487 76.5885 24.3906 77.0625 24.3906C77.6667 24.3906 78.1875 24.4948 78.625 24.7031C79.0677 24.9115 79.4297 25.2031 79.7109 25.5781C79.9922 25.9479 80.2005 26.3854 80.3359 26.8906C80.4714 27.3906 80.5391 27.9375 80.5391 28.5312V29.1797H74.2266V28H79.0938V27.8906C79.0729 27.5156 78.9948 27.151 78.8594 26.7969C78.7292 26.4427 78.5208 26.151 78.2344 25.9219C77.9479 25.6927 77.5573 25.5781 77.0625 25.5781C76.7344 25.5781 76.4323 25.6484 76.1562 25.7891C75.8802 25.9245 75.6432 26.1276 75.4453 26.3984C75.2474 26.6693 75.0938 27 74.9844 27.3906C74.875 27.7812 74.8203 28.2318 74.8203 28.7422V29.0703C74.8203 29.4714 74.875 29.849 74.9844 30.2031C75.099 30.5521 75.263 30.8594 75.4766 31.125C75.6953 31.3906 75.9583 31.599 76.2656 31.75C76.5781 31.901 76.9323 31.9766 77.3281 31.9766C77.8385 31.9766 78.2708 31.8724 78.625 31.6641C78.9792 31.4557 79.2891 31.1771 79.5547 30.8281L80.4297 31.5234C80.2474 31.7995 80.0156 32.0625 79.7344 32.3125C79.4531 32.5625 79.1068 32.7656 78.6953 32.9219C78.2891 33.0781 77.8073 33.1562 77.25 33.1562ZM83.6719 25.875V33H82.2266V24.5469H83.6328L83.6719 25.875ZM86.3125 24.5L86.3047 25.8438C86.1849 25.8177 86.0703 25.8021 85.9609 25.7969C85.8568 25.7865 85.737 25.7812 85.6016 25.7812C85.2682 25.7812 84.974 25.8333 84.7188 25.9375C84.4635 26.0417 84.2474 26.1875 84.0703 26.375C83.8932 26.5625 83.7526 26.7865 83.6484 27.0469C83.5495 27.3021 83.4844 27.5833 83.4531 27.8906L83.0469 28.125C83.0469 27.6146 83.0964 27.1354 83.1953 26.6875C83.2995 26.2396 83.4583 25.8438 83.6719 25.5C83.8854 25.151 84.1562 24.8802 84.4844 24.6875C84.8177 24.4896 85.2135 24.3906 85.6719 24.3906C85.776 24.3906 85.8958 24.4036 86.0312 24.4297C86.1667 24.4505 86.2604 24.474 86.3125 24.5ZM96.0469 22.6328L92.2812 33H90.7422L95.0781 21.625H96.0703L96.0469 22.6328ZM99.2031 33L95.4297 22.6328L95.4062 21.625H96.3984L100.75 33H99.2031ZM99.0078 28.7891V30.0234H92.6172V28.7891H99.0078ZM103.5 26.3516V33H102.055V24.5469H103.422L103.5 26.3516ZM103.156 28.4531L102.555 28.4297C102.56 27.8516 102.646 27.3177 102.812 26.8281C102.979 26.3333 103.214 25.9036 103.516 25.5391C103.818 25.1745 104.177 24.8932 104.594 24.6953C105.016 24.4922 105.482 24.3906 105.992 24.3906C106.409 24.3906 106.784 24.4479 107.117 24.5625C107.451 24.6719 107.734 24.849 107.969 25.0938C108.208 25.3385 108.391 25.6562 108.516 26.0469C108.641 26.4323 108.703 26.9036 108.703 27.4609V33H107.25V27.4453C107.25 27.0026 107.185 26.6484 107.055 26.3828C106.924 26.112 106.734 25.9167 106.484 25.7969C106.234 25.6719 105.927 25.6094 105.562 25.6094C105.203 25.6094 104.875 25.6849 104.578 25.8359C104.286 25.987 104.034 26.1953 103.82 26.4609C103.612 26.7266 103.448 27.0312 103.328 27.375C103.214 27.7135 103.156 28.0729 103.156 28.4531ZM115.883 31.5547V27.2031C115.883 26.8698 115.815 26.5807 115.68 26.3359C115.549 26.0859 115.352 25.8932 115.086 25.7578C114.82 25.6224 114.492 25.5547 114.102 25.5547C113.737 25.5547 113.417 25.6172 113.141 25.7422C112.87 25.8672 112.656 26.0312 112.5 26.2344C112.349 26.4375 112.273 26.6562 112.273 26.8906H110.828C110.828 26.5885 110.906 26.2891 111.062 25.9922C111.219 25.6953 111.443 25.4271 111.734 25.1875C112.031 24.9427 112.385 24.75 112.797 24.6094C113.214 24.4635 113.677 24.3906 114.188 24.3906C114.802 24.3906 115.344 24.4948 115.812 24.7031C116.286 24.9115 116.656 25.2266 116.922 25.6484C117.193 26.0651 117.328 26.5885 117.328 27.2188V31.1562C117.328 31.4375 117.352 31.737 117.398 32.0547C117.451 32.3724 117.526 32.6458 117.625 32.875V33H116.117C116.044 32.8333 115.987 32.612 115.945 32.3359C115.904 32.0547 115.883 31.7943 115.883 31.5547ZM116.133 27.875L116.148 28.8906H114.688C114.276 28.8906 113.909 28.9245 113.586 28.9922C113.263 29.0547 112.992 29.151 112.773 29.2812C112.555 29.4115 112.388 29.5755 112.273 29.7734C112.159 29.9661 112.102 30.1927 112.102 30.4531C112.102 30.7188 112.161 30.9609 112.281 31.1797C112.401 31.3984 112.581 31.5729 112.82 31.7031C113.065 31.8281 113.365 31.8906 113.719 31.8906C114.161 31.8906 114.552 31.7969 114.891 31.6094C115.229 31.4219 115.497 31.1927 115.695 30.9219C115.898 30.651 116.008 30.388 116.023 30.1328L116.641 30.8281C116.604 31.0469 116.505 31.2891 116.344 31.5547C116.182 31.8203 115.966 32.0755 115.695 32.3203C115.43 32.5599 115.112 32.7604 114.742 32.9219C114.378 33.0781 113.966 33.1562 113.508 33.1562C112.935 33.1562 112.432 33.0443 112 32.8203C111.573 32.5964 111.24 32.2969 111 31.9219C110.766 31.5417 110.648 31.1172 110.648 30.6484C110.648 30.1953 110.737 29.7969 110.914 29.4531C111.091 29.1042 111.346 28.8151 111.68 28.5859C112.013 28.3516 112.414 28.1745 112.883 28.0547C113.352 27.9349 113.875 27.875 114.453 27.875H116.133ZM121.055 21V33H119.602V21H121.055ZM126.219 24.5469L122.531 28.4922L120.469 30.6328L120.352 29.0938L121.828 27.3281L124.453 24.5469H126.219ZM124.898 33L121.883 28.9688L122.633 27.6797L126.602 33H124.898ZM129.281 24.5469V33H127.828V24.5469H129.281ZM127.719 22.3047C127.719 22.0703 127.789 21.8724 127.93 21.7109C128.076 21.5495 128.289 21.4688 128.57 21.4688C128.846 21.4688 129.057 21.5495 129.203 21.7109C129.354 21.8724 129.43 22.0703 129.43 22.3047C129.43 22.5286 129.354 22.7214 129.203 22.8828C129.057 23.0391 128.846 23.1172 128.57 23.1172C128.289 23.1172 128.076 23.0391 127.93 22.8828C127.789 22.7214 127.719 22.5286 127.719 22.3047ZM133.047 26.3516V33H131.602V24.5469H132.969L133.047 26.3516ZM132.703 28.4531L132.102 28.4297C132.107 27.8516 132.193 27.3177 132.359 26.8281C132.526 26.3333 132.76 25.9036 133.062 25.5391C133.365 25.1745 133.724 24.8932 134.141 24.6953C134.562 24.4922 135.029 24.3906 135.539 24.3906C135.956 24.3906 136.331 24.4479 136.664 24.5625C136.997 24.6719 137.281 24.849 137.516 25.0938C137.755 25.3385 137.938 25.6562 138.062 26.0469C138.188 26.4323 138.25 26.9036 138.25 27.4609V33H136.797V27.4453C136.797 27.0026 136.732 26.6484 136.602 26.3828C136.471 26.112 136.281 25.9167 136.031 25.7969C135.781 25.6719 135.474 25.6094 135.109 25.6094C134.75 25.6094 134.422 25.6849 134.125 25.8359C133.833 25.987 133.581 26.1953 133.367 26.4609C133.159 26.7266 132.995 27.0312 132.875 27.375C132.76 27.7135 132.703 28.0729 132.703 28.4531ZM141.758 31.2812V32.4453C141.758 32.9193 141.638 33.4193 141.398 33.9453C141.159 34.4766 140.823 34.9193 140.391 35.2734L139.57 34.7031C139.737 34.474 139.878 34.2396 139.992 34C140.107 33.7656 140.193 33.5208 140.25 33.2656C140.312 33.0156 140.344 32.75 140.344 32.4688V31.2812H141.758ZM34.9375 45.625V57H33.4297V45.625H34.9375ZM42.875 45V57H41.4297V45H42.875ZM42.5312 52.4531L41.9297 52.4297C41.9349 51.8516 42.0208 51.3177 42.1875 50.8281C42.3542 50.3333 42.5885 49.9036 42.8906 49.5391C43.1927 49.1745 43.5521 48.8932 43.9688 48.6953C44.3906 48.4922 44.8568 48.3906 45.3672 48.3906C45.7839 48.3906 46.1589 48.4479 46.4922 48.5625C46.8255 48.6719 47.1094 48.849 47.3438 49.0938C47.5833 49.3385 47.7656 49.6562 47.8906 50.0469C48.0156 50.4323 48.0781 50.9036 48.0781 51.4609V57H46.625V51.4453C46.625 51.0026 46.5599 50.6484 46.4297 50.3828C46.2995 50.112 46.1094 49.9167 45.8594 49.7969C45.6094 49.6719 45.3021 49.6094 44.9375 49.6094C44.5781 49.6094 44.25 49.6849 43.9531 49.8359C43.6615 49.987 43.4089 50.1953 43.1953 50.4609C42.987 50.7266 42.8229 51.0312 42.7031 51.375C42.5885 51.7135 42.5312 52.0729 42.5312 52.4531ZM55.2266 55.5547V51.2031C55.2266 50.8698 55.1589 50.5807 55.0234 50.3359C54.8932 50.0859 54.6953 49.8932 54.4297 49.7578C54.1641 49.6224 53.8359 49.5547 53.4453 49.5547C53.0807 49.5547 52.7604 49.6172 52.4844 49.7422C52.2135 49.8672 52 50.0312 51.8438 50.2344C51.6927 50.4375 51.6172 50.6562 51.6172 50.8906H50.1719C50.1719 50.5885 50.25 50.2891 50.4062 49.9922C50.5625 49.6953 50.7865 49.4271 51.0781 49.1875C51.375 48.9427 51.7292 48.75 52.1406 48.6094C52.5573 48.4635 53.0208 48.3906 53.5312 48.3906C54.1458 48.3906 54.6875 48.4948 55.1562 48.7031C55.6302 48.9115 56 49.2266 56.2656 49.6484C56.5365 50.0651 56.6719 50.5885 56.6719 51.2188V55.1562C56.6719 55.4375 56.6953 55.737 56.7422 56.0547C56.7943 56.3724 56.8698 56.6458 56.9688 56.875V57H55.4609C55.388 56.8333 55.3307 56.612 55.2891 56.3359C55.2474 56.0547 55.2266 55.7943 55.2266 55.5547ZM55.4766 51.875L55.4922 52.8906H54.0312C53.6198 52.8906 53.2526 52.9245 52.9297 52.9922C52.6068 53.0547 52.3359 53.151 52.1172 53.2812C51.8984 53.4115 51.7318 53.5755 51.6172 53.7734C51.5026 53.9661 51.4453 54.1927 51.4453 54.4531C51.4453 54.7188 51.5052 54.9609 51.625 55.1797C51.7448 55.3984 51.9245 55.5729 52.1641 55.7031C52.4089 55.8281 52.7083 55.8906 53.0625 55.8906C53.5052 55.8906 53.8958 55.7969 54.2344 55.6094C54.5729 55.4219 54.8411 55.1927 55.0391 54.9219C55.2422 54.651 55.3516 54.388 55.3672 54.1328L55.9844 54.8281C55.9479 55.0469 55.849 55.2891 55.6875 55.5547C55.526 55.8203 55.3099 56.0755 55.0391 56.3203C54.7734 56.5599 54.4557 56.7604 54.0859 56.9219C53.7214 57.0781 53.3099 57.1562 52.8516 57.1562C52.2786 57.1562 51.776 57.0443 51.3438 56.8203C50.9167 56.5964 50.5833 56.2969 50.3438 55.9219C50.1094 55.5417 49.9922 55.1172 49.9922 54.6484C49.9922 54.1953 50.0807 53.7969 50.2578 53.4531C50.4349 53.1042 50.6901 52.8151 51.0234 52.5859C51.3568 52.3516 51.7578 52.1745 52.2266 52.0547C52.6953 51.9349 53.2188 51.875 53.7969 51.875H55.4766ZM61.3906 55.6953L63.7031 48.5469H65.1797L62.1406 57H61.1719L61.3906 55.6953ZM59.4609 48.5469L61.8438 55.7344L62.0078 57H61.0391L57.9766 48.5469H59.4609ZM69.9688 57.1562C69.3802 57.1562 68.8464 57.0573 68.3672 56.8594C67.8932 56.6562 67.4844 56.3724 67.1406 56.0078C66.8021 55.6432 66.5417 55.2109 66.3594 54.7109C66.1771 54.2109 66.0859 53.6641 66.0859 53.0703V52.7422C66.0859 52.0547 66.1875 51.4427 66.3906 50.9062C66.5938 50.3646 66.8698 49.9062 67.2188 49.5312C67.5677 49.1562 67.9635 48.8724 68.4062 48.6797C68.849 48.487 69.3073 48.3906 69.7812 48.3906C70.3854 48.3906 70.9062 48.4948 71.3438 48.7031C71.7865 48.9115 72.1484 49.2031 72.4297 49.5781C72.7109 49.9479 72.9193 50.3854 73.0547 50.8906C73.1901 51.3906 73.2578 51.9375 73.2578 52.5312V53.1797H66.9453V52H71.8125V51.8906C71.7917 51.5156 71.7135 51.151 71.5781 50.7969C71.4479 50.4427 71.2396 50.151 70.9531 49.9219C70.6667 49.6927 70.276 49.5781 69.7812 49.5781C69.4531 49.5781 69.151 49.6484 68.875 49.7891C68.599 49.9245 68.362 50.1276 68.1641 50.3984C67.9661 50.6693 67.8125 51 67.7031 51.3906C67.5938 51.7812 67.5391 52.2318 67.5391 52.7422V53.0703C67.5391 53.4714 67.5938 53.849 67.7031 54.2031C67.8177 54.5521 67.9818 54.8594 68.1953 55.125C68.4141 55.3906 68.6771 55.599 68.9844 55.75C69.2969 55.901 69.651 55.9766 70.0469 55.9766C70.5573 55.9766 70.9896 55.8724 71.3438 55.6641C71.6979 55.4557 72.0078 55.1771 72.2734 54.8281L73.1484 55.5234C72.9661 55.7995 72.7344 56.0625 72.4531 56.3125C72.1719 56.5625 71.8255 56.7656 71.4141 56.9219C71.0078 57.0781 70.526 57.1562 69.9688 57.1562ZM82.4531 48.5469V49.6562H77.8828V48.5469H82.4531ZM79.4297 46.4922H80.875V54.9062C80.875 55.1927 80.9193 55.4089 81.0078 55.5547C81.0964 55.7005 81.2109 55.7969 81.3516 55.8438C81.4922 55.8906 81.6432 55.9141 81.8047 55.9141C81.9245 55.9141 82.0495 55.9036 82.1797 55.8828C82.3151 55.8568 82.4167 55.8359 82.4844 55.8203L82.4922 57C82.3776 57.0365 82.2266 57.0703 82.0391 57.1016C81.8568 57.138 81.6354 57.1562 81.375 57.1562C81.0208 57.1562 80.6953 57.0859 80.3984 56.9453C80.1016 56.8047 79.8646 56.5703 79.6875 56.2422C79.5156 55.9089 79.4297 55.4609 79.4297 54.8984V46.4922ZM85.5938 45V57H84.1484V45H85.5938ZM85.25 52.4531L84.6484 52.4297C84.6536 51.8516 84.7396 51.3177 84.9062 50.8281C85.0729 50.3333 85.3073 49.9036 85.6094 49.5391C85.9115 49.1745 86.2708 48.8932 86.6875 48.6953C87.1094 48.4922 87.5755 48.3906 88.0859 48.3906C88.5026 48.3906 88.8776 48.4479 89.2109 48.5625C89.5443 48.6719 89.8281 48.849 90.0625 49.0938C90.3021 49.3385 90.4844 49.6562 90.6094 50.0469C90.7344 50.4323 90.7969 50.9036 90.7969 51.4609V57H89.3438V51.4453C89.3438 51.0026 89.2786 50.6484 89.1484 50.3828C89.0182 50.112 88.8281 49.9167 88.5781 49.7969C88.3281 49.6719 88.0208 49.6094 87.6562 49.6094C87.2969 49.6094 86.9688 49.6849 86.6719 49.8359C86.3802 49.987 86.1276 50.1953 85.9141 50.4609C85.7057 50.7266 85.5417 51.0312 85.4219 51.375C85.3073 51.7135 85.25 52.0729 85.25 52.4531ZM96.4688 57.1562C95.8802 57.1562 95.3464 57.0573 94.8672 56.8594C94.3932 56.6562 93.9844 56.3724 93.6406 56.0078C93.3021 55.6432 93.0417 55.2109 92.8594 54.7109C92.6771 54.2109 92.5859 53.6641 92.5859 53.0703V52.7422C92.5859 52.0547 92.6875 51.4427 92.8906 50.9062C93.0938 50.3646 93.3698 49.9062 93.7188 49.5312C94.0677 49.1562 94.4635 48.8724 94.9062 48.6797C95.349 48.487 95.8073 48.3906 96.2812 48.3906C96.8854 48.3906 97.4062 48.4948 97.8438 48.7031C98.2865 48.9115 98.6484 49.2031 98.9297 49.5781C99.2109 49.9479 99.4193 50.3854 99.5547 50.8906C99.6901 51.3906 99.7578 51.9375 99.7578 52.5312V53.1797H93.4453V52H98.3125V51.8906C98.2917 51.5156 98.2135 51.151 98.0781 50.7969C97.9479 50.4427 97.7396 50.151 97.4531 49.9219C97.1667 49.6927 96.776 49.5781 96.2812 49.5781C95.9531 49.5781 95.651 49.6484 95.375 49.7891C95.099 49.9245 94.862 50.1276 94.6641 50.3984C94.4661 50.6693 94.3125 51 94.2031 51.3906C94.0938 51.7812 94.0391 52.2318 94.0391 52.7422V53.0703C94.0391 53.4714 94.0938 53.849 94.2031 54.2031C94.3177 54.5521 94.4818 54.8594 94.6953 55.125C94.9141 55.3906 95.1771 55.599 95.4844 55.75C95.7969 55.901 96.151 55.9766 96.5469 55.9766C97.0573 55.9766 97.4896 55.8724 97.8438 55.6641C98.1979 55.4557 98.5078 55.1771 98.7734 54.8281L99.6484 55.5234C99.4661 55.7995 99.2344 56.0625 98.9531 56.3125C98.6719 56.5625 98.3255 56.7656 97.9141 56.9219C97.5078 57.0781 97.026 57.1562 96.4688 57.1562ZM106.859 45V57H105.414V45H106.859ZM106.516 52.4531L105.914 52.4297C105.919 51.8516 106.005 51.3177 106.172 50.8281C106.339 50.3333 106.573 49.9036 106.875 49.5391C107.177 49.1745 107.536 48.8932 107.953 48.6953C108.375 48.4922 108.841 48.3906 109.352 48.3906C109.768 48.3906 110.143 48.4479 110.477 48.5625C110.81 48.6719 111.094 48.849 111.328 49.0938C111.568 49.3385 111.75 49.6562 111.875 50.0469C112 50.4323 112.062 50.9036 112.062 51.4609V57H110.609V51.4453C110.609 51.0026 110.544 50.6484 110.414 50.3828C110.284 50.112 110.094 49.9167 109.844 49.7969C109.594 49.6719 109.286 49.6094 108.922 49.6094C108.562 49.6094 108.234 49.6849 107.938 49.8359C107.646 49.987 107.393 50.1953 107.18 50.4609C106.971 50.7266 106.807 51.0312 106.688 51.375C106.573 51.7135 106.516 52.0729 106.516 52.4531ZM115.797 48.5469V57H114.344V48.5469H115.797ZM114.234 46.3047C114.234 46.0703 114.305 45.8724 114.445 45.7109C114.591 45.5495 114.805 45.4688 115.086 45.4688C115.362 45.4688 115.573 45.5495 115.719 45.7109C115.87 45.8724 115.945 46.0703 115.945 46.3047C115.945 46.5286 115.87 46.7214 115.719 46.8828C115.573 47.0391 115.362 47.1172 115.086 47.1172C114.805 47.1172 114.591 47.0391 114.445 46.8828C114.305 46.7214 114.234 46.5286 114.234 46.3047ZM123.594 48.5469H124.906V56.8203C124.906 57.5651 124.755 58.2005 124.453 58.7266C124.151 59.2526 123.729 59.651 123.188 59.9219C122.651 60.1979 122.031 60.3359 121.328 60.3359C121.036 60.3359 120.693 60.2891 120.297 60.1953C119.906 60.1068 119.521 59.9531 119.141 59.7344C118.766 59.5208 118.451 59.2318 118.195 58.8672L118.953 58.0078C119.307 58.4349 119.677 58.7318 120.062 58.8984C120.453 59.0651 120.839 59.1484 121.219 59.1484C121.677 59.1484 122.073 59.0625 122.406 58.8906C122.74 58.7188 122.997 58.4635 123.18 58.125C123.367 57.7917 123.461 57.3802 123.461 56.8906V50.4062L123.594 48.5469ZM117.773 52.8672V52.7031C117.773 52.0573 117.849 51.4714 118 50.9453C118.156 50.4141 118.378 49.9583 118.664 49.5781C118.956 49.1979 119.307 48.9062 119.719 48.7031C120.13 48.4948 120.594 48.3906 121.109 48.3906C121.641 48.3906 122.104 48.4844 122.5 48.6719C122.901 48.8542 123.24 49.1224 123.516 49.4766C123.797 49.8255 124.018 50.2474 124.18 50.7422C124.341 51.237 124.453 51.7969 124.516 52.4219V53.1406C124.458 53.7604 124.346 54.3177 124.18 54.8125C124.018 55.3073 123.797 55.7292 123.516 56.0781C123.24 56.4271 122.901 56.6953 122.5 56.8828C122.099 57.0651 121.63 57.1562 121.094 57.1562C120.589 57.1562 120.13 57.0495 119.719 56.8359C119.312 56.6224 118.964 56.3229 118.672 55.9375C118.38 55.5521 118.156 55.099 118 54.5781C117.849 54.0521 117.773 53.4818 117.773 52.8672ZM119.219 52.7031V52.8672C119.219 53.2891 119.26 53.6849 119.344 54.0547C119.432 54.4245 119.565 54.75 119.742 55.0312C119.924 55.3125 120.156 55.5339 120.438 55.6953C120.719 55.8516 121.055 55.9297 121.445 55.9297C121.924 55.9297 122.32 55.8281 122.633 55.625C122.945 55.4219 123.193 55.1536 123.375 54.8203C123.562 54.487 123.708 54.125 123.812 53.7344V51.8516C123.755 51.5651 123.667 51.2891 123.547 51.0234C123.432 50.7526 123.281 50.513 123.094 50.3047C122.911 50.0911 122.685 49.9219 122.414 49.7969C122.143 49.6719 121.826 49.6094 121.461 49.6094C121.065 49.6094 120.724 49.6927 120.438 49.8594C120.156 50.0208 119.924 50.2448 119.742 50.5312C119.565 50.8125 119.432 51.1406 119.344 51.5156C119.26 51.8854 119.219 52.2812 119.219 52.7031ZM128.547 45V57H127.102V45H128.547ZM128.203 52.4531L127.602 52.4297C127.607 51.8516 127.693 51.3177 127.859 50.8281C128.026 50.3333 128.26 49.9036 128.562 49.5391C128.865 49.1745 129.224 48.8932 129.641 48.6953C130.062 48.4922 130.529 48.3906 131.039 48.3906C131.456 48.3906 131.831 48.4479 132.164 48.5625C132.497 48.6719 132.781 48.849 133.016 49.0938C133.255 49.3385 133.438 49.6562 133.562 50.0469C133.688 50.4323 133.75 50.9036 133.75 51.4609V57H132.297V51.4453C132.297 51.0026 132.232 50.6484 132.102 50.3828C131.971 50.112 131.781 49.9167 131.531 49.7969C131.281 49.6719 130.974 49.6094 130.609 49.6094C130.25 49.6094 129.922 49.6849 129.625 49.8359C129.333 49.987 129.081 50.1953 128.867 50.4609C128.659 50.7266 128.495 51.0312 128.375 51.375C128.26 51.7135 128.203 52.0729 128.203 52.4531ZM145.359 48.5469H146.672V56.8203C146.672 57.5651 146.521 58.2005 146.219 58.7266C145.917 59.2526 145.495 59.651 144.953 59.9219C144.417 60.1979 143.797 60.3359 143.094 60.3359C142.802 60.3359 142.458 60.2891 142.062 60.1953C141.672 60.1068 141.286 59.9531 140.906 59.7344C140.531 59.5208 140.216 59.2318 139.961 58.8672L140.719 58.0078C141.073 58.4349 141.443 58.7318 141.828 58.8984C142.219 59.0651 142.604 59.1484 142.984 59.1484C143.443 59.1484 143.839 59.0625 144.172 58.8906C144.505 58.7188 144.763 58.4635 144.945 58.125C145.133 57.7917 145.227 57.3802 145.227 56.8906V50.4062L145.359 48.5469ZM139.539 52.8672V52.7031C139.539 52.0573 139.615 51.4714 139.766 50.9453C139.922 50.4141 140.143 49.9583 140.43 49.5781C140.721 49.1979 141.073 48.9062 141.484 48.7031C141.896 48.4948 142.359 48.3906 142.875 48.3906C143.406 48.3906 143.87 48.4844 144.266 48.6719C144.667 48.8542 145.005 49.1224 145.281 49.4766C145.562 49.8255 145.784 50.2474 145.945 50.7422C146.107 51.237 146.219 51.7969 146.281 52.4219V53.1406C146.224 53.7604 146.112 54.3177 145.945 54.8125C145.784 55.3073 145.562 55.7292 145.281 56.0781C145.005 56.4271 144.667 56.6953 144.266 56.8828C143.865 57.0651 143.396 57.1562 142.859 57.1562C142.354 57.1562 141.896 57.0495 141.484 56.8359C141.078 56.6224 140.729 56.3229 140.438 55.9375C140.146 55.5521 139.922 55.099 139.766 54.5781C139.615 54.0521 139.539 53.4818 139.539 52.8672ZM140.984 52.7031V52.8672C140.984 53.2891 141.026 53.6849 141.109 54.0547C141.198 54.4245 141.331 54.75 141.508 55.0312C141.69 55.3125 141.922 55.5339 142.203 55.6953C142.484 55.8516 142.82 55.9297 143.211 55.9297C143.69 55.9297 144.086 55.8281 144.398 55.625C144.711 55.4219 144.958 55.1536 145.141 54.8203C145.328 54.487 145.474 54.125 145.578 53.7344V51.8516C145.521 51.5651 145.432 51.2891 145.312 51.0234C145.198 50.7526 145.047 50.513 144.859 50.3047C144.677 50.0911 144.451 49.9219 144.18 49.7969C143.909 49.6719 143.591 49.6094 143.227 49.6094C142.831 49.6094 142.49 49.6927 142.203 49.8594C141.922 50.0208 141.69 50.2448 141.508 50.5312C141.331 50.8125 141.198 51.1406 141.109 51.5156C141.026 51.8854 140.984 52.2812 140.984 52.7031ZM150.312 49.875V57H148.867V48.5469H150.273L150.312 49.875ZM152.953 48.5L152.945 49.8438C152.826 49.8177 152.711 49.8021 152.602 49.7969C152.497 49.7865 152.378 49.7812 152.242 49.7812C151.909 49.7812 151.615 49.8333 151.359 49.9375C151.104 50.0417 150.888 50.1875 150.711 50.375C150.534 50.5625 150.393 50.7865 150.289 51.0469C150.19 51.3021 150.125 51.5833 150.094 51.8906L149.688 52.125C149.688 51.6146 149.737 51.1354 149.836 50.6875C149.94 50.2396 150.099 49.8438 150.312 49.5C150.526 49.151 150.797 48.8802 151.125 48.6875C151.458 48.4896 151.854 48.3906 152.312 48.3906C152.417 48.3906 152.536 48.4036 152.672 48.4297C152.807 48.4505 152.901 48.474 152.953 48.5ZM153.75 52.8672V52.6875C153.75 52.0781 153.839 51.513 154.016 50.9922C154.193 50.4661 154.448 50.0104 154.781 49.625C155.115 49.2344 155.518 48.9323 155.992 48.7188C156.466 48.5 156.997 48.3906 157.586 48.3906C158.18 48.3906 158.714 48.5 159.188 48.7188C159.667 48.9323 160.073 49.2344 160.406 49.625C160.745 50.0104 161.003 50.4661 161.18 50.9922C161.357 51.513 161.445 52.0781 161.445 52.6875V52.8672C161.445 53.4766 161.357 54.0417 161.18 54.5625C161.003 55.0833 160.745 55.5391 160.406 55.9297C160.073 56.3151 159.669 56.6172 159.195 56.8359C158.727 57.0495 158.195 57.1562 157.602 57.1562C157.008 57.1562 156.474 57.0495 156 56.8359C155.526 56.6172 155.12 56.3151 154.781 55.9297C154.448 55.5391 154.193 55.0833 154.016 54.5625C153.839 54.0417 153.75 53.4766 153.75 52.8672ZM155.195 52.6875V52.8672C155.195 53.2891 155.245 53.6875 155.344 54.0625C155.443 54.4323 155.591 54.7604 155.789 55.0469C155.992 55.3333 156.245 55.5599 156.547 55.7266C156.849 55.888 157.201 55.9688 157.602 55.9688C157.997 55.9688 158.344 55.888 158.641 55.7266C158.943 55.5599 159.193 55.3333 159.391 55.0469C159.589 54.7604 159.737 54.4323 159.836 54.0625C159.94 53.6875 159.992 53.2891 159.992 52.8672V52.6875C159.992 52.2708 159.94 51.8776 159.836 51.5078C159.737 51.1328 159.586 50.8021 159.383 50.5156C159.185 50.224 158.935 49.9948 158.633 49.8281C158.336 49.6615 157.987 49.5781 157.586 49.5781C157.19 49.5781 156.841 49.6615 156.539 49.8281C156.242 49.9948 155.992 50.224 155.789 50.5156C155.591 50.8021 155.443 51.1328 155.344 51.5078C155.245 51.8776 155.195 52.2708 155.195 52.6875ZM168.43 55.0469V48.5469H169.883V57H168.5L168.43 55.0469ZM168.703 53.2656L169.305 53.25C169.305 53.8125 169.245 54.3333 169.125 54.8125C169.01 55.2865 168.823 55.6979 168.562 56.0469C168.302 56.3958 167.961 56.6693 167.539 56.8672C167.117 57.0599 166.604 57.1562 166 57.1562C165.589 57.1562 165.211 57.0964 164.867 56.9766C164.529 56.8568 164.237 56.6719 163.992 56.4219C163.747 56.1719 163.557 55.8464 163.422 55.4453C163.292 55.0443 163.227 54.5625 163.227 54V48.5469H164.672V54.0156C164.672 54.3958 164.714 54.7109 164.797 54.9609C164.885 55.2057 165.003 55.401 165.148 55.5469C165.299 55.6875 165.466 55.7865 165.648 55.8438C165.836 55.901 166.029 55.9297 166.227 55.9297C166.841 55.9297 167.328 55.8125 167.688 55.5781C168.047 55.3385 168.305 55.0182 168.461 54.6172C168.622 54.2109 168.703 53.7604 168.703 53.2656ZM173.531 50.3516V57H172.086V48.5469H173.453L173.531 50.3516ZM173.188 52.4531L172.586 52.4297C172.591 51.8516 172.677 51.3177 172.844 50.8281C173.01 50.3333 173.245 49.9036 173.547 49.5391C173.849 49.1745 174.208 48.8932 174.625 48.6953C175.047 48.4922 175.513 48.3906 176.023 48.3906C176.44 48.3906 176.815 48.4479 177.148 48.5625C177.482 48.6719 177.766 48.849 178 49.0938C178.24 49.3385 178.422 49.6562 178.547 50.0469C178.672 50.4323 178.734 50.9036 178.734 51.4609V57H177.281V51.4453C177.281 51.0026 177.216 50.6484 177.086 50.3828C176.956 50.112 176.766 49.9167 176.516 49.7969C176.266 49.6719 175.958 49.6094 175.594 49.6094C175.234 49.6094 174.906 49.6849 174.609 49.8359C174.318 49.987 174.065 50.1953 173.852 50.4609C173.643 50.7266 173.479 51.0312 173.359 51.375C173.245 51.7135 173.188 52.0729 173.188 52.4531ZM186.258 55.3594V45H187.711V57H186.383L186.258 55.3594ZM180.57 52.8672V52.7031C180.57 52.0573 180.648 51.4714 180.805 50.9453C180.966 50.4141 181.193 49.9583 181.484 49.5781C181.781 49.1979 182.133 48.9062 182.539 48.7031C182.951 48.4948 183.409 48.3906 183.914 48.3906C184.445 48.3906 184.909 48.4844 185.305 48.6719C185.706 48.8542 186.044 49.1224 186.32 49.4766C186.602 49.8255 186.823 50.2474 186.984 50.7422C187.146 51.237 187.258 51.7969 187.32 52.4219V53.1406C187.263 53.7604 187.151 54.3177 186.984 54.8125C186.823 55.3073 186.602 55.7292 186.32 56.0781C186.044 56.4271 185.706 56.6953 185.305 56.8828C184.904 57.0651 184.435 57.1562 183.898 57.1562C183.404 57.1562 182.951 57.0495 182.539 56.8359C182.133 56.6224 181.781 56.3229 181.484 55.9375C181.193 55.5521 180.966 55.099 180.805 54.5781C180.648 54.0521 180.57 53.4818 180.57 52.8672ZM182.023 52.7031V52.8672C182.023 53.2891 182.065 53.6849 182.148 54.0547C182.237 54.4245 182.372 54.75 182.555 55.0312C182.737 55.3125 182.969 55.5339 183.25 55.6953C183.531 55.8516 183.867 55.9297 184.258 55.9297C184.737 55.9297 185.13 55.8281 185.438 55.625C185.75 55.4219 186 55.1536 186.188 54.8203C186.375 54.487 186.521 54.125 186.625 53.7344V51.8516C186.562 51.5651 186.471 51.2891 186.352 51.0234C186.237 50.7526 186.086 50.513 185.898 50.3047C185.716 50.0911 185.49 49.9219 185.219 49.7969C184.953 49.6719 184.638 49.6094 184.273 49.6094C183.878 49.6094 183.536 49.6927 183.25 49.8594C182.969 50.0208 182.737 50.2448 182.555 50.5312C182.372 50.8125 182.237 51.1406 182.148 51.5156C182.065 51.8854 182.023 52.2812 182.023 52.7031ZM189.984 56.2344C189.984 55.9896 190.06 55.7839 190.211 55.6172C190.367 55.4453 190.591 55.3594 190.883 55.3594C191.174 55.3594 191.396 55.4453 191.547 55.6172C191.703 55.7839 191.781 55.9896 191.781 56.2344C191.781 56.474 191.703 56.6771 191.547 56.8438C191.396 57.0104 191.174 57.0938 190.883 57.0938C190.591 57.0938 190.367 57.0104 190.211 56.8438C190.06 56.6771 189.984 56.474 189.984 56.2344Z" fill="#374151"/>
</svg>
